<?xml version="1.0" standalone="no"?>
<!DOCTYPE svg PUBLIC "-//W3C//DTD SVG 20010904//EN"
 "http://www.w3.org/TR/2001/REC-SVG-20010904/DTD/svg10.dtd">
<svg version="1.0" xmlns="http://www.w3.org/2000/svg"
 width="512.000000pt" height="512.000000pt" viewBox="0 0 512.000000 512.000000"
 preserveAspectRatio="xMidYMid meet">
<metadata>
Created by potrace 1.14, written by Peter Selinger 2001-2017
</metadata>
<g transform="translate(0.000000,512.000000) scale(0.100000,-0.100000)"
fill="#000000" stroke="none">
<path d="M306 4459 c-143 -49 -246 -167 -290 -329 -13 -47 -15 -269 -15 -1560
0 -829 4 -1525 9 -1550 25 -128 100 -244 201 -312 107 -72 25 -68 1499 -68
1455 0 1382 -3 1483 62 116 74 196 201 214 340 3 29 6 723 6 1543 0 1390 -1
1494 -18 1550 -49 170 -157 286 -304 329 -48 14 -202 16 -1390 16 -1317 -1
-1337 -1 -1395 -21z"/>
<path d="M4761 4149 c-44 -13 -65 -27 -201 -133 -200 -156 -592 -460 -660
-512 -35 -27 -70 -53 -76 -59 -6 -5 -26 -21 -44 -35 -19 -14 -45 -34 -58 -46
l-25 -20 0 -784 0 -783 31 -26 c16 -14 81 -65 143 -113 63 -48 125 -96 139
-107 14 -11 131 -102 260 -201 129 -100 244 -189 255 -198 101 -83 189 -142
230 -157 102 -35 225 7 296 99 68 90 64 -14 66 1472 2 963 0 1361 -8 1385 -31
97 -93 173 -166 205 -47 20 -136 26 -182 13z"/>
</g>
</svg>
